<?xml version="1.0" encoding="UTF-8"?>
<!DOCTYPE svg PUBLIC "-//W3C//DTD SVG 1.1//EN" "http://www.w3.org/Graphics/SVG/1.1/DTD/svg11.dtd">
<!-- Creator: CorelDRAW X7 -->
<svg xmlns="http://www.w3.org/2000/svg" xml:space="preserve" width="595px" height="717px" version="1.1" style="shape-rendering:geometricPrecision; text-rendering:geometricPrecision; image-rendering:optimizeQuality; fill-rule:evenodd; clip-rule:evenodd"
viewBox="0 0 773 932"
 xmlns:xlink="http://www.w3.org/1999/xlink">
 <defs>
  <style type="text/css">
   <![CDATA[
    .fil0 {fill:#373435;fill-rule:nonzero}
   ]]>
  </style>
 </defs>
 <g id="Layer_x0020_1">
  <metadata id="CorelCorpID_0Corel-Layer"/>
  <g id="_1923728866688">
   <path class="fil0" d="M81 878c-2,-20 -13,-37 -35,-37 -19,0 -33,16 -35,37l70 0zm-33 54c-25,0 -47,-20 -47,-50l0 0c0,-28 20,-50 46,-50 26,0 44,22 44,50 0,2 -3,4 -5,4l-75 0c2,24 19,38 38,38 13,0 23,-6 31,-14 0,0 1,-1 2,-1 3,0 5,2 5,4 0,1 0,3 -2,4 -9,9 -20,15 -37,15z"/>
   <path class="fil0" d="M188 926c0,3 -2,5 -5,5 -2,0 -4,-2 -4,-5l0 -14c-7,11 -17,20 -35,20 -24,0 -38,-16 -38,-39l0 -55c0,-2 2,-4 5,-4 2,0 4,2 4,4l0 53c0,20 11,33 31,33 18,0 33,-14 33,-34l0 -52c0,-2 2,-4 4,-4 3,0 5,2 5,4l0 88z"/>
   <path class="fil0" d="M209 843c0,-8 6,-14 14,-14 8,0 14,6 14,14l0 4c4,-9 11,-18 19,-18 9,0 14,5 14,13 0,8 -5,12 -10,14 -15,3 -23,14 -23,34l0 27c0,8 -6,14 -14,14 -8,0 -14,-6 -14,-14l0 -74z"/>
   <path class="fil0" d="M341 872c-2,-13 -10,-21 -22,-21 -11,0 -19,8 -21,21l43 0zm-19 60c-30,0 -52,-21 -52,-52l0 0c0,-29 20,-52 49,-52 34,0 49,27 49,48 0,8 -6,14 -14,14l-56 0c3,13 12,19 25,19 8,0 14,-2 20,-6 2,-2 4,-3 7,-3 6,0 11,5 11,12 0,3 -2,6 -4,8 -9,8 -20,12 -35,12z"/>
   <path class="fil0" d="M375 880l0 0c0,-29 22,-52 53,-52 15,0 26,4 34,11 2,2 5,5 5,10 0,7 -6,13 -13,13 -4,0 -7,-2 -9,-3 -5,-4 -10,-7 -17,-7 -15,0 -25,13 -25,28l0 0c0,15 10,28 26,28 7,0 13,-3 18,-7 2,-1 5,-3 8,-3 7,0 12,6 12,12 0,4 -2,7 -4,9 -8,8 -19,13 -36,13 -30,0 -52,-23 -52,-52z"/>
   <path class="fil0" d="M479 843c0,-8 6,-14 14,-14 8,0 14,6 14,14l0 74c0,8 -6,14 -14,14 -8,0 -14,-6 -14,-14l0 -74zm-2 -37c0,-9 7,-14 16,-14 9,0 16,5 16,14l0 0c0,8 -7,14 -16,14 -9,0 -16,-6 -16,-14l0 0z"/>
   <path class="fil0" d="M520 880l0 0c0,-29 22,-52 53,-52 15,0 25,4 34,11 2,2 4,5 4,10 0,7 -6,13 -13,13 -3,0 -6,-2 -8,-3 -5,-4 -10,-7 -18,-7 -14,0 -24,13 -24,28l0 0c0,15 10,28 25,28 8,0 14,-3 19,-7 2,-1 4,-3 8,-3 7,0 12,6 12,12 0,4 -2,7 -4,9 -9,8 -19,13 -36,13 -30,0 -52,-23 -52,-52z"/>
   <path class="fil0" d="M624 806c0,-7 6,-14 14,-14 8,0 14,7 14,14l0 111c0,8 -6,14 -14,14 -8,0 -14,-6 -14,-14l0 -111z"/>
   <path class="fil0" d="M745 880l0 0c0,-15 -11,-28 -26,-28 -17,0 -26,13 -26,28l0 0c0,15 10,28 26,28 16,0 26,-13 26,-28zm-80 0l0 0c0,-29 23,-52 54,-52 31,0 54,23 54,52l0 0c0,29 -23,52 -54,52 -31,0 -54,-23 -54,-52z"/>
   <path class="fil0" d="M358 340c0,30 -24,54 -54,54 -30,0 -55,-24 -55,-54 0,-30 25,-54 55,-54 30,0 54,24 54,54z"/>
   <path class="fil0" d="M521 340c0,30 -24,54 -54,54 -30,0 -55,-24 -55,-54 0,-30 25,-54 55,-54 30,0 54,24 54,54z"/>
   <path class="fil0" d="M766 445l-64 -83c-7,-9 -17,-9 -23,-1l-65 84c-6,9 -3,15 7,15l29 0c-41,110 -150,185 -271,179 -137,-6 -250,-114 -262,-250 -2,-20 -20,-35 -41,-33 -20,1 -35,19 -33,40 8,83 45,161 106,220 61,59 142,93 226,97 85,4 169,-23 235,-76 57,-46 98,-105 118,-174l-1 2 1 0 30 -2c11,0 14,-10 8,-18z"/>
   <path class="fil0" d="M735 285c-31,-157 -165,-275 -327,-284 -157,-10 -310,90 -368,219l-29 0c-11,0 -14,9 -8,17l66 85c6,8 17,9 23,1l65 -86c6,-8 3,-17 -7,-17l-26 0c52,-88 163,-152 279,-145 128,7 234,100 258,223 4,20 24,34 44,30 21,-4 34,-23 30,-43z"/>
  </g>
 </g>
</svg>
