<?xml version="1.0" encoding="UTF-8"?>
<!DOCTYPE svg PUBLIC "-//W3C//DTD SVG 1.1//EN" "http://www.w3.org/Graphics/SVG/1.1/DTD/svg11.dtd">
<!-- Creator: CorelDRAW X7 -->
<svg xmlns="http://www.w3.org/2000/svg" xml:space="preserve" width="657px" height="651px" version="1.1" style="shape-rendering:geometricPrecision; text-rendering:geometricPrecision; image-rendering:optimizeQuality; fill-rule:evenodd; clip-rule:evenodd"
viewBox="0 0 543 538"
 xmlns:xlink="http://www.w3.org/1999/xlink">
 <defs>
  <style type="text/css">
   <![CDATA[
    .fil0 {fill:#96989A;fill-rule:nonzero}
   ]]>
  </style>
 </defs>
 <g id="Layer_x0020_1">
  <metadata id="CorelCorpID_0Corel-Layer"/>
  <path class="fil0" d="M35 518l10 3c-1,6 -4,10 -8,13 -3,3 -8,4 -13,4 -7,0 -13,-2 -17,-7 -5,-5 -7,-11 -7,-19 0,-9 2,-16 7,-21 4,-4 10,-7 17,-7 7,0 12,2 16,6 2,2 4,5 5,9l-10 3c-1,-3 -2,-5 -4,-7 -2,-1 -4,-2 -7,-2 -4,0 -7,2 -10,4 -2,3 -3,8 -3,14 0,6 1,11 3,14 3,3 6,4 10,4 2,0 5,-1 7,-3 2,-1 3,-4 4,-8z"/>
  <path class="fil0" d="M65 507l8 0c5,0 8,0 9,-1 1,0 2,-1 3,-2 1,-1 1,-2 1,-4 0,-1 -1,-3 -1,-4 -1,-1 -3,-2 -4,-2 -1,0 -4,0 -8,0l-8 0 0 13zm-11 30l0 -52 22 0c6,0 10,1 12,1 3,1 5,3 7,5 1,3 2,6 2,9 0,4 -1,7 -4,9 -2,3 -5,4 -10,5 2,1 4,3 6,4 1,2 3,5 6,9l6 10 -13 0 -7 -11c-3,-4 -5,-7 -6,-8 -1,-1 -2,-2 -3,-2 -1,0 -3,-1 -5,-1l-2 0 0 22 -11 0z"/>
  <path class="fil0" d="M107 485l10 0 0 28c0,5 0,8 0,9 1,2 2,4 4,5 1,1 4,2 7,2 3,0 5,-1 6,-2 2,-1 3,-3 3,-4 0,-2 1,-5 1,-9l0 -29 10 0 0 27c0,7 0,11 -1,14 0,2 -1,4 -3,6 -1,2 -4,3 -6,4 -3,1 -6,2 -10,2 -5,0 -9,-1 -11,-2 -3,-1 -5,-2 -6,-4 -2,-2 -3,-4 -3,-6 -1,-3 -1,-7 -1,-13l0 -28z"/>
  <polygon class="fil0" points="159,537 159,485 198,485 198,494 170,494 170,505 196,505 196,514 170,514 170,528 199,528 199,537 "/>
  <polygon class="fil0" points="208,537 208,486 218,486 218,528 244,528 244,537 "/>
  <polygon class="fil0" points="258,537 258,494 243,494 243,485 284,485 284,494 269,494 269,537 "/>
  <polygon class="fil0" points="304,537 304,515 285,485 298,485 310,506 322,485 334,485 315,515 315,537 "/>
  <polygon class="fil0" points="358,537 358,485 394,485 394,494 369,494 369,506 390,506 390,515 369,515 369,537 "/>
  <path class="fil0" d="M413 507l8 0c5,0 8,0 9,-1 1,0 2,-1 3,-2 1,-1 1,-2 1,-4 0,-1 0,-3 -1,-4 -1,-1 -3,-2 -4,-2 -1,0 -4,0 -8,0l-8 0 0 13zm-11 30l0 -52 22 0c6,0 10,1 13,1 2,1 4,3 6,5 1,3 2,6 2,9 0,4 -1,7 -4,9 -2,3 -5,4 -10,5 2,1 4,3 6,4 1,2 3,5 6,9l6 10 -12 0 -8 -11c-3,-4 -5,-7 -6,-8 -1,-1 -2,-2 -3,-2 -1,0 -3,-1 -5,-1l-2 0 0 22 -11 0z"/>
  <polygon class="fil0" points="455,537 455,485 493,485 493,494 465,494 465,505 491,505 491,514 465,514 465,528 494,528 494,537 "/>
  <polygon class="fil0" points="503,537 503,485 542,485 542,494 514,494 514,505 540,505 540,514 514,514 514,528 543,528 543,537 "/>
  <path class="fil0" d="M153 120c7,0 13,6 13,13 0,7 -6,13 -13,13 -7,0 -13,-6 -13,-13 0,-7 6,-13 13,-13z"/>
  <path class="fil0" d="M313 239c-2,-4 -6,-6 -10,-5 -8,4 -15,8 -22,13 -3,2 -4,7 -2,10 2,2 4,3 6,3 2,0 3,-1 5,-2 5,-4 12,-7 18,-10 4,-1 6,-6 5,-9z"/>
  <path class="fil0" d="M419 385c-3,0 -6,-1 -9,-2 6,-7 10,-14 14,-22 1,-4 3,-7 4,-11 1,-3 1,-6 2,-9 7,4 12,12 12,21 0,12 -10,23 -23,23zm-26 -6c-14,14 -34,23 -53,25 -5,0 -9,2 -12,5 -26,9 -47,11 -64,3 -6,-2 -11,-8 -9,-15 2,-5 6,-10 11,-13 14,11 35,20 36,20 4,2 8,0 10,-4 1,-4 -1,-8 -4,-9 -7,-3 -26,-12 -35,-21 0,0 0,0 -1,0 -6,-7 -9,-15 -12,-24 -6,-19 -4,-41 6,-60 2,-4 1,-8 -3,-10 -3,-2 -8,-1 -9,3 -9,15 -13,34 -11,52 0,6 1,13 3,19 -26,31 -63,60 -93,60 -3,0 -7,0 -10,-1 -5,-1 -10,-4 -12,-11 -1,-9 7,-25 34,-43 2,-1 3,-3 4,-5 0,-2 -1,-4 -3,-6 0,0 -14,-14 -22,-36 -11,-28 -9,-56 6,-82 0,0 1,0 1,0 4,0 7,0 11,0 37,0 76,-15 94,-57 3,-6 41,7 45,8 19,7 37,18 55,34 0,0 0,0 0,0 5,5 10,9 14,15 0,0 0,0 0,0 32,36 47,69 46,101 0,0 0,0 0,0 0,20 -9,38 -23,52zm-55 -352c-1,0 -2,0 -3,0 0,0 0,0 0,0 -32,4 -62,15 -89,32 0,0 0,0 0,0 -1,1 -3,2 -4,3 -10,-7 -22,-11 -35,-13 12,-8 26,-16 42,-22 20,-8 41,-12 58,-12 16,0 28,4 31,11 0,0 0,0 0,1 0,0 0,0 0,0zm93 299c0,-35 -16,-71 -49,-110 -26,-29 -58,-48 -95,-57 -9,-3 -17,-4 -26,-5 1,0 2,-8 3,-9 0,0 0,-5 0,-5 16,-2 35,-6 54,-14 24,-9 45,-22 59,-36 16,-15 22,-31 17,-43 -5,-13 -19,-20 -41,-21 -1,-2 -1,-4 -2,-6 -5,-13 -21,-20 -44,-20 -19,0 -41,5 -63,13 -25,10 -46,23 -60,37 -5,1 -9,2 -13,3 -24,8 -48,23 -69,43 -3,3 -3,8 0,11 3,3 7,3 10,0 19,-19 42,-33 63,-40 8,-2 16,-3 24,-3 13,0 24,3 34,10 0,0 0,0 0,0 2,1 4,3 6,4 3,1 5,0 7,-1 0,0 0,0 0,0 5,-4 10,-7 15,-10 9,-5 18,-10 28,-14 0,0 1,0 1,0 19,-7 41,-13 62,-12 15,0 26,5 29,11 2,7 -3,17 -14,28 -13,12 -32,24 -55,33 -19,7 -39,12 -56,12 -4,1 -7,4 -7,8l0 10c-6,25 -18,44 -37,56 -17,10 -38,14 -60,12 -38,-3 -72,-25 -73,-47 0,-10 6,-22 15,-36 2,-3 1,-8 -2,-10 -3,-2 -8,-1 -10,2 -11,16 -17,31 -17,44 0,0 0,0 0,1 1,29 34,51 70,58 -19,37 -13,69 -5,91 6,15 15,27 20,34 -24,17 -36,36 -33,52 3,17 20,25 35,25 13,0 27,-4 41,-12 20,-10 41,-26 59,-47 1,1 2,3 4,5 -1,1 -1,2 -2,4 -5,4 -11,11 -13,18 -3,12 2,24 12,30 11,6 23,9 35,9 14,0 29,-4 46,-10 2,-1 4,-3 7,-4 21,-1 41,-10 58,-24 6,3 13,5 20,5 21,0 38,-17 38,-37 0,-17 -11,-31 -26,-36z"/>
 </g>
</svg>
